<svg width="27" height="27" viewBox="0 0 27 27" fill="none" xmlns="http://www.w3.org/2000/svg">
<path d="M3.51581 22.1285V2.95047H19.0046V19.0568L21.9557 16.6194V1.47523C21.9557 0.660638 21.2956 0 20.481 0H2.04058C1.22598 0 0.565918 0.660638 0.565918 1.47523V23.6032C0.565918 24.4178 1.22598 25.0784 2.04058 25.0784H14.9133L12.8279 22.1285H3.51581Z" fill="white"/>
<path d="M26.2033 15.8605C25.9316 15.6042 25.5139 15.5922 25.2278 15.8277L18.4617 21.4196L13.9527 18.7144C13.6534 18.5352 13.2703 18.5886 13.0319 18.846C12.7952 19.101 12.7693 19.4877 12.971 19.7726L17.8574 26.6875C17.9941 26.8811 18.2164 26.9971 18.4531 26.9994C18.4554 26.9994 18.4577 26.9994 18.46 26.9994C18.6944 26.9994 18.9156 26.8885 19.0546 26.6978L26.2929 16.8325C26.5112 16.5332 26.4739 16.1167 26.2033 15.8605Z" fill="#73E6A4"/>
<path d="M15.6865 5.16333H6.83452C6.01993 5.16333 5.35986 5.82397 5.35986 6.63856C5.35986 7.45316 6.01993 8.1138 6.83452 8.1138H15.6859C16.5005 8.1138 17.16 7.45316 17.16 6.63856C17.16 5.82397 16.5011 5.16333 15.6865 5.16333Z" fill="white"/>
<path d="M15.6865 9.58844H6.83452C6.01993 9.58844 5.35986 10.2491 5.35986 11.0637C5.35986 11.8783 6.01993 12.5389 6.83452 12.5389H15.6859C16.5005 12.5389 17.16 11.8788 17.16 11.0637C17.1617 10.2491 16.5011 9.58844 15.6865 9.58844Z" fill="white"/>
<path d="M15.6865 14.0142H6.83452C6.01993 14.0142 5.35986 14.6748 5.35986 15.4894C5.35986 16.304 6.01993 16.9646 6.83452 16.9646H15.6859C16.5005 16.9646 17.16 16.304 17.16 15.4894C17.1617 14.6748 16.5011 14.0142 15.6865 14.0142Z" fill="white"/>
</svg>
