<svg width="27" height="27" viewBox="0 0 27 27" fill="none" xmlns="http://www.w3.org/2000/svg">
<path d="M3.51581 22.1285V2.95047H19.0046V13.5L21.9557 14.6489V1.47523C21.9557 0.660638 21.2956 0 20.481 0H2.04058C1.22598 0 0.565918 0.660638 0.565918 1.47523V23.6032C0.565918 24.4178 1.22598 25.0784 2.04058 25.0784H14.9133L12.8279 22.1285H3.51581Z" fill="#858585"/>
<path d="M15.6865 5.16333H6.83452C6.01993 5.16333 5.35986 5.82397 5.35986 6.63856C5.35986 7.45316 6.01993 8.1138 6.83452 8.1138H15.6859C16.5005 8.1138 17.16 7.45316 17.16 6.63856C17.16 5.82397 16.5011 5.16333 15.6865 5.16333Z" fill="#858585"/>
<path d="M15.6865 9.58844H6.83452C6.01993 9.58844 5.35986 10.2491 5.35986 11.0637C5.35986 11.8783 6.01993 12.5389 6.83452 12.5389H15.6859C16.5005 12.5389 17.16 11.8788 17.16 11.0637C17.1617 10.2491 16.5011 9.58844 15.6865 9.58844Z" fill="#858585"/>
<g clip-path="url(#clip0_1495_295)">
<path d="M18.8826 14.3617C15.7563 14.3617 13.2126 16.9051 13.2126 20.0317C13.2126 23.1583 15.7563 25.7017 18.8826 25.7017C22.009 25.7017 24.5526 23.1583 24.5526 20.0317C24.5526 16.9051 22.009 14.3617 18.8826 14.3617ZM19.3188 23.3028C19.3188 23.5436 19.1234 23.739 18.8826 23.739C18.6419 23.739 18.4465 23.5436 18.4465 23.3028V22.8667C18.4465 22.6259 18.6419 22.4305 18.8826 22.4305C19.1234 22.4305 19.3188 22.6259 19.3188 22.8667V23.3028ZM19.3188 21.5582C19.3188 21.799 19.1234 21.9944 18.8826 21.9944C18.6419 21.9944 18.4465 21.799 18.4465 21.5582V16.7605C18.4465 16.5198 18.6419 16.3244 18.8826 16.3244C19.1234 16.3244 19.3188 16.5198 19.3188 16.7605V21.5582Z" fill="#858585"/>
</g>
<defs>
<clipPath id="clip0_1495_295">
<rect width="11.34" height="11.34" fill="white" transform="translate(13.2126 14.3617)"/>
</clipPath>
</defs>
</svg>
